<svg xmlns="http://www.w3.org/2000/svg" viewBox="0 0 640 420" role="img" aria-labelledby="title desc">
  <title id="title">Banh ngot</title>
  <desc id="desc">Mieng banh ngot voi kem va dau.</desc>
  <defs>
    <linearGradient id="bg" x1="0" x2="1" y1="0" y2="1">
      <stop offset="0" stop-color="#fff1f1"/>
      <stop offset="1" stop-color="#e5b4ac"/>
    </linearGradient>
  </defs>
  <rect width="640" height="420" rx="32" fill="url(#bg)"/>
  <circle cx="112" cy="344" r="120" fill="#ffffff" opacity=".30"/>
  <g fill="none" stroke="#8d4b3f" stroke-linecap="round" stroke-linejoin="round" stroke-width="15">
    <path d="M172 252 398 142l80 176H220l-48-66Z" fill="#fff8f2"/>
    <path d="M218 318h260"/>
    <path d="M204 242c34 22 68 20 102-4s70-26 110-8"/>
    <path d="M398 142c18 24 46 38 84 42"/>
  </g>
  <path d="M310 184c-18-24-2-54 24-50 24 4 30 34 8 54l-30 26-30-26Z" fill="#c45d4d"/>
  <circle cx="456" cy="118" r="30" fill="#fff8f2" stroke="#8d4b3f" stroke-width="12"/>
  <circle cx="218" cy="180" r="24" fill="#fff8f2" stroke="#8d4b3f" stroke-width="12"/>
  <text x="52" y="82" fill="#744137" font-family="Arial, Helvetica, sans-serif" font-size="40" font-weight="800">BANH NGOT</text>
</svg>
