<svg xmlns="http://www.w3.org/2000/svg" viewBox="0 0 640 420" role="img" aria-labelledby="title desc">
  <title id="title">Ca phe</title>
  <desc id="desc">Ly ca phe nong voi hat ca phe.</desc>
  <defs>
    <linearGradient id="bg" x1="0" x2="1" y1="0" y2="1">
      <stop offset="0" stop-color="#f6ede2"/>
      <stop offset="1" stop-color="#c49a78"/>
    </linearGradient>
  </defs>
  <rect width="640" height="420" rx="32" fill="url(#bg)"/>
  <circle cx="512" cy="90" r="106" fill="#fff6e9" opacity=".35"/>
  <g fill="none" stroke="#654035" stroke-linecap="round" stroke-linejoin="round" stroke-width="16">
    <path d="M178 178h248a122 122 0 0 1-122 122h-4a122 122 0 0 1-122-122Z" fill="#fff7ed"/>
    <path d="M426 198h40a52 52 0 0 1 0 104h-52"/>
    <path d="M212 144c20-28 48-28 68 0s48 28 68 0 48-28 68 0"/>
    <path d="M190 314h236"/>
  </g>
  <g fill="#8b5e3c">
    <ellipse cx="126" cy="292" rx="32" ry="22" transform="rotate(-25 126 292)"/>
    <path d="M110 302c18-4 32-15 44-32"/>
    <ellipse cx="506" cy="318" rx="34" ry="22" transform="rotate(25 506 318)"/>
    <path d="M484 306c20 2 36 12 54 28" fill="none" stroke="#5f3a32" stroke-linecap="round" stroke-width="8"/>
  </g>
  <text x="52" y="82" fill="#54362e" font-family="Arial, Helvetica, sans-serif" font-size="40" font-weight="800">CA PHE</text>
</svg>
